<?xml version="1.0" encoding="UTF-8"?>
<svg id="_Слой_1" data-name="Слой_1" xmlns="http://www.w3.org/2000/svg" version="1.1" viewBox="0 0 1461.95 1149.14">
  <!-- Generator: Adobe Illustrator 29.4.0, SVG Export Plug-In . SVG Version: 2.1.0 Build 152)  -->
  <defs>
    <style>
      .st0 {
        fill: #7fba27;
      }

      .st1, .st2, .st3 {
        fill-rule: evenodd;
      }

      .st1, .st3 {
        fill: #fff;
      }

      .st4 {
        fill: #f3f3ef;
      }

      .st2 {
        fill: #d14a4a;
      }

      .st5 {
        display: none;
      }

      .st3 {
        stroke: #d14a4a;
        stroke-miterlimit: 10;
        stroke-width: 2.8px;
      }
    </style>
  </defs>
  <polygon id="main-0-floor" class="st3" points="17.38 693.61 1444.57 693.61 1444.57 492.96 17.38 492.96 17.38 693.61"/>
  <polygon id="open-space-1" class="st3" points="17.38 576.09 97.83 576.09 97.83 492.96 17.38 492.96 17.38 576.09"/>
  <polygon id="open-space-11" data-name="open-space-1" class="st3" points="97.83 576.09 173.98 576.09 173.98 492.96 97.83 492.96 97.83 576.09"/>
  <polygon id="open-space-12" data-name="open-space-1" class="st3" points="173.98 576.09 250.14 576.09 250.14 492.96 173.98 492.96 173.98 576.09"/>
  <polygon id="open-space-13" data-name="open-space-1" class="st3" points="250.14 576.09 406.07 576.09 406.07 492.96 250.14 492.96 250.14 576.09"/>
  <polygon id="open-space-14" data-name="open-space-1" class="st3" points="406.07 576.09 562.72 576.09 562.72 492.96 406.07 492.96 406.07 576.09"/>
  <polygon id="open-space-15" data-name="open-space-1" class="st3" points="578.09 576.09 808.93 576.09 808.93 492.96 578.09 492.96 578.09 576.09"/>
  <polygon id="_x30_18" class="st3" points="808.93 693.61 887.11 693.61 887.11 610.48 808.93 610.48 808.93 693.61"/>
  <polygon id="_x30_181" data-name="_x30_18" class="st3" points="887.11 693.61 1120.36 693.61 1120.36 610.48 887.11 610.48 887.11 693.61"/>
  <polygon id="_x30_182" data-name="_x30_18" class="st3" points="1132.71 693.61 1286.01 693.61 1286.01 610.48 1132.71 610.48 1132.71 693.61"/>
  <polygon id="_x30_183" data-name="_x30_18" class="st3" points="1286.01 693.61 1444.69 693.61 1444.69 610.48 1286.01 610.48 1286.01 693.61"/>
  <polygon id="_x30_184" data-name="_x30_18" class="st3" points="654.63 693.61 808.93 693.61 808.93 610.48 654.63 610.48 654.63 693.61"/>
  <polygon id="_x30_185" data-name="_x30_18" class="st3" points="578.09 693.61 654.63 693.61 654.63 610.48 578.09 610.48 578.09 693.61"/>
  <polygon id="_x30_186" data-name="_x30_18" class="st3" points="405.39 693.61 562.72 693.61 562.72 610.48 405.39 610.48 405.39 693.61"/>
  <polygon id="_x30_187" data-name="_x30_18" class="st3" points="251.76 693.61 405.39 693.61 405.39 610.48 251.76 610.48 251.76 693.61"/>
  <polygon id="_x30_188" data-name="_x30_18" class="st3" points="92.77 693.61 251.56 693.61 251.56 610.48 92.77 610.48 92.77 693.61"/>
  <polygon id="_x30_09" class="st3" points="1132.71 576.09 1366.98 576.09 1366.98 492.96 1132.71 492.96 1132.71 576.09"/>
  <polygon id="_x30_13" class="st3" points="886.55 576.14 1041.23 576.14 1041.23 493.01 886.55 493.01 886.55 576.14"/>
  <polygon id="_x30_131" data-name="_x30_13" class="st3" points="1041.23 576.14 1120.36 576.14 1120.36 493.01 1041.23 493.01 1041.23 576.14"/>
  <g id="toilet-icon">
    <path class="st2" d="M52.21,523.37h14.5c2.2,0,3.9,1.9,3.9,4.1v14.1c0,2.3-1.8,4.1-3.9,4.1h-14.5c-2.2,0-3.9-1.9-3.9-4.1v-14.1c0-2.3,1.8-4.1,3.9-4.1Z"/>
    <path class="st4" d="M55.91,529.67h-3.3c-.8,0-1.4.6-1.4,1.4v4.6c0,.3.2.6.6.6h0c.3,0,.6-.3.6-.6v-4.6h0v10.5c0,.4.3.7.7.7s.7-.3.7-.7v-6h.3v6c0,.4.3.7.7.7s.7-.3.7-.7v-10.5h0v4.6c0,.3.3.6.6.6h0c.3,0,.6-.3.6-.6v-4.6h0c0-.8-.6-1.4-1.4-1.4h.6Z"/>
    <circle class="st4" cx="54.21" cy="528.07" r="1.2"/>
    <path class="st4" d="M68.01,534.77s-1.1-3.2-1.3-3.8c-.3-.8-.7-1.2-1.4-1.2h-2.2c-.6,0-1.1.4-1.4,1.2-.2.5-1.3,3.7-1.3,3.8,0,.3,0,.7.4.8.3,0,.7,0,.8-.4,0,0,.7-2,1.1-3.1,0,.3,0-.3-.9,4.6,0,.2,0,.4.3.4h.5v4.4c0,.4.3.7.7.7s.7-.3.7-.7v-4.4h.3v4.4c0,.4.3.7.7.7s.7-.3.7-.7v-4.4h.5c.2,0,.4-.2.3-.4-.9-4.9-.8-4.3-.8-4.6.4,1.1,1,3,1,3.1,0,.3.5.5.8.4s.5-.4.4-.8h.1Z"/>
    <circle class="st4" cx="64.11" cy="528.07" r="1.2"/>
    <path class="st4" d="M59.01,527.57c-.3,0-.5.2-.5.5v13c0,.3.2.5.5.5s.5-.2.5-.5v-13c0-.3-.2-.5-.5-.5Z"/>
  </g>
  <g id="toilet-icon1" data-name="toilet-icon">
    <path class="st2" d="M1073.54,523.37h14.5c2.2,0,3.9,1.9,3.9,4.1v14.1c0,2.3-1.8,4.1-3.9,4.1h-14.5c-2.2,0-3.9-1.9-3.9-4.1v-14.1c0-2.3,1.8-4.1,3.9-4.1Z"/>
    <path class="st4" d="M1077.24,529.67h-3.3c-.8,0-1.4.6-1.4,1.4v4.6c0,.3.2.6.6.6h0c.3,0,.6-.3.6-.6v-4.6h0v10.5c0,.4.3.7.7.7s.7-.3.7-.7v-6h.3v6c0,.4.3.7.7.7s.7-.3.7-.7v-10.5h0v4.6c0,.3.3.6.6.6h0c.3,0,.6-.3.6-.6v-4.6h0c0-.8-.6-1.4-1.4-1.4h.6Z"/>
    <circle class="st4" cx="1075.54" cy="528.07" r="1.2"/>
    <path class="st4" d="M1089.34,534.77s-1.1-3.2-1.3-3.8c-.3-.8-.7-1.2-1.4-1.2h-2.2c-.6,0-1.1.4-1.4,1.2-.2.5-1.3,3.7-1.3,3.8,0,.3,0,.7.4.8.3,0,.7,0,.8-.4,0,0,.7-2,1.1-3.1,0,.3,0-.3-.9,4.6,0,.2,0,.4.3.4h.5v4.4c0,.4.3.7.7.7s.7-.3.7-.7v-4.4h.3v4.4c0,.4.3.7.7.7s.7-.3.7-.7v-4.4h.5c.2,0,.4-.2.3-.4-.9-4.9-.8-4.3-.8-4.6.4,1.1,1,3,1,3.1,0,.3.5.5.8.4s.5-.4.4-.8h.1Z"/>
    <circle class="st4" cx="1085.44" cy="528.07" r="1.2"/>
    <path class="st4" d="M1080.34,527.57c-.3,0-.5.2-.5.5v13c0,.3.2.5.5.5s.5-.2.5-.5v-13c0-.3-.2-.5-.5-.5Z"/>
  </g>
  <g id="stairs-icon_29">
    <path class="st2" d="M840.77,522.92h14.5c2.2,0,3.9,1.9,3.9,4.1v14.1c0,2.3-1.8,4.1-3.9,4.1h-14.5c-2.2,0-3.9-1.9-3.9-4.1v-14.1c0-2.3,1.8-4.1,3.9-4.1Z"/>
    <polygon class="st4" points="854.57 535.52 854.57 534.52 853.47 534.52 850.97 534.52 849.87 535.52 852.87 535.52 850.47 537.92 851.17 538.72 853.47 536.32 853.47 539.22 854.57 538.02 854.57 535.52"/>
    <polygon class="st4" points="844.07 537.52 846.87 537.52 846.87 534.72 849.67 534.72 849.67 531.72 852.67 531.72 852.67 528.92 855.47 528.92 855.47 527.82 851.47 527.82 851.47 530.62 848.47 530.62 848.47 533.72 845.67 533.72 845.67 536.42 842.97 536.42 842.97 539.22 840.57 539.22 840.57 540.32 844.07 540.32 844.07 537.52"/>
  </g>
  <g id="stairs-icon_291" data-name="stairs-icon_29">
    <path class="st2" d="M1399.64,499.01h14.5c2.2,0,3.9,1.9,3.9,4.1v14.1c0,2.3-1.8,4.1-3.9,4.1h-14.5c-2.2,0-3.9-1.9-3.9-4.1v-14.1c0-2.3,1.8-4.1,3.9-4.1Z"/>
    <polygon class="st4" points="1413.44 511.61 1413.44 510.61 1412.34 510.61 1409.84 510.61 1408.74 511.61 1411.74 511.61 1409.34 514.01 1410.04 514.81 1412.34 512.41 1412.34 515.31 1413.44 514.11 1413.44 511.61"/>
    <polygon class="st4" points="1402.94 513.61 1405.74 513.61 1405.74 510.81 1408.54 510.81 1408.54 507.81 1411.54 507.81 1411.54 505.01 1414.34 505.01 1414.34 503.91 1410.34 503.91 1410.34 506.71 1407.34 506.71 1407.34 509.81 1404.54 509.81 1404.54 512.51 1401.84 512.51 1401.84 515.31 1399.44 515.31 1399.44 516.41 1402.94 516.41 1402.94 513.61"/>
  </g>
  <g id="stairs-icon_292" data-name="stairs-icon_29">
    <path class="st2" d="M50.36,665.56h14.5c2.2,0,3.9,1.9,3.9,4.1v14.1c0,2.3-1.8,4.1-3.9,4.1h-14.5c-2.2,0-3.9-1.9-3.9-4.1v-14.1c0-2.3,1.8-4.1,3.9-4.1Z"/>
    <polygon class="st4" points="64.16 678.16 64.16 677.16 63.06 677.16 60.56 677.16 59.46 678.16 62.46 678.16 60.06 680.56 60.76 681.36 63.06 678.96 63.06 681.86 64.16 680.66 64.16 678.16"/>
    <polygon class="st4" points="53.66 680.16 56.46 680.16 56.46 677.36 59.26 677.36 59.26 674.36 62.26 674.36 62.26 671.56 65.06 671.56 65.06 670.46 61.06 670.46 61.06 673.26 58.06 673.26 58.06 676.36 55.26 676.36 55.26 679.06 52.56 679.06 52.56 681.86 50.16 681.86 50.16 682.96 53.66 682.96 53.66 680.16"/>
  </g>
  <g id="doors" class="st5">
    <path id="path1330" class="st1" d="M1150.3,492.96h-22.5v1.1h22.5v-1.1ZM1150.3,492.96v3.9h2v-3.9h-2ZM1127.8,492.96h-2v3.9h2v-3.9ZM1127.8,492.96v-11.3h2v11.3h-2ZM1150.3,492.96v-11.3h-2v11.3h2Z"/>
    <path id="path1330-2" class="st1" d="M960.6,492.96h-22.5v1.1h22.5v-1.1ZM960.6,492.96v3.9h2v-3.9h-2ZM938.2,492.96h-2v3.9h2v-3.9ZM938.2,492.96v-11.3h2v11.3h-2ZM960.6,492.96v-11.3h-2v11.3h2Z"/>
    <path id="path1330-3" class="st1" d="M612.9,386.16h-22.5v1.1h22.5v-1.1ZM612.9,386.16v3.9h2v-3.9h-2ZM590.5,386.16h-2v3.9h2v-3.9ZM590.5,386.16v-11.3h2v11.3h-2ZM612.9,386.16v-11.3h-2v11.3h2Z"/>
    <path id="path1330-4" class="st1" d="M388.1,315.76h22.5v-1.1h-22.5v1.1ZM388.1,315.76v-3.9h-2v3.9h2ZM410.5,315.76h2v-3.9h-2v3.9ZM410.6,315.76v11.3h-2v-11.3h2ZM388.1,315.76v11.3h2v-11.3h-2Z"/>
    <path id="path1330-5" class="st1" d="M1228.3,511.96h22.5v-1.1h-22.5v1.1ZM1228.3,511.96v-3.9h-2v3.9h2ZM1250.8,511.96h2v-3.9h-2v3.9ZM1250.8,511.96v11.3h-2v-11.3h2ZM1228.3,511.96v11.3h2v-11.3h-2Z"/>
    <path id="path1330-6" class="st1" d="M563.6,414.86h22.5v-1.1h-22.5v1.1ZM563.6,414.86v-3.9h-2v3.9h2ZM586,414.86h2v-3.9h-2v3.9ZM586,414.86v11.3h-2v-11.3h2ZM563.6,414.86v11.3h2v-11.3h-2Z"/>
    <path id="path1330-7" class="st1" d="M680.3,422.86v22.5h1.1v-22.5h-1.1ZM680.3,422.86h3.9v-2h-3.9v2ZM680.3,445.26v2h3.9v-2h-3.9ZM680.3,445.26h-11.3v-2h11.3v2ZM680.3,422.86h-11.3v2h11.3v-2Z"/>
    <path id="path1330-8" class="st1" d="M680.4,460.66v22.5h1.1v-22.5h-1.1ZM680.4,460.66h3.9v-2h-3.9v2ZM680.4,483.16v2h3.9v-2h-3.9ZM680.4,483.16h-11.3v-2h11.3v2ZM680.4,460.66h-11.3v2h11.3v-2Z"/>
    <path id="path1330-9" class="st1" d="M680.5,537.56v22.5h1.1v-22.5h-1.1ZM680.5,537.56h3.9v-2h-3.9v2ZM680.5,560.06v2h3.9v-2h-3.9ZM680.5,560.06h-11.3v-2h11.3v2ZM680.5,537.56h-11.3v2h11.3v-2Z"/>
    <path id="path1330-10" class="st1" d="M722.2,521.56h22.5v-1.1h-22.5v1.1ZM722.2,521.56v-3.9h-2v3.9h2ZM744.7,521.56h2v-3.9h-2v3.9ZM744.7,521.56v11.3h-2v-11.3h2ZM722.2,521.56v11.3h2v-11.3h-2Z"/>
    <path id="path1330-11" class="st1" d="M868.4,664.66h-22.5v1.1h22.5v-1.1ZM868.4,664.66v3.9h2v-3.9h-2ZM845.9,664.66h-2v3.9h2v-3.9ZM845.9,664.66v-11.3h2v11.3h-2ZM868.4,664.66v-11.3h-2v11.3h2Z"/>
    <path id="path1330-12" class="st1" d="M1056.3,664.66h-22.5v1.1h22.5v-1.1ZM1056.3,664.66v3.9h2v-3.9h-2ZM1033.8,664.66h-2v3.9h2v-3.9ZM1033.8,664.66v-11.3h2v11.3h-2ZM1056.3,664.66v-11.3h-2v11.3h2Z"/>
    <path id="path1330-13" class="st1" d="M1129.7,664.66h-22.5v1.1h22.5v-1.1ZM1129.7,664.66v3.9h2v-3.9h-2ZM1107.2,664.66h-2v3.9h2v-3.9ZM1107.2,664.66v-11.3h2v11.3h-2ZM1129.7,664.66v-11.3h-2v11.3h2Z"/>
    <path id="path1330-14" class="st1" d="M494.1,654.86h22.5v-1.1h-22.5v1.1ZM494.1,654.86v-3.9h-2v3.9h2ZM516.6,654.86h2v-3.9h-2v3.9ZM516.6,654.86v11.3h-2v-11.3h2ZM494.1,654.86v11.3h2v-11.3h-2Z"/>
    <path id="path1330-15" class="st1" d="M686.7,654.86h22.5v-1.1h-22.5v1.1ZM686.7,654.86v-3.9h-2v3.9h2ZM709.2,654.86h2v-3.9h-2v3.9ZM709.2,654.86v11.3h-2v-11.3h2ZM686.7,654.86v11.3h2v-11.3h-2Z"/>
    <path id="path1330-16" class="st1" d="M361.2,610.96v22.5h1.1v-22.5h-1.1ZM361.2,610.96h3.9v-2h-3.9v2ZM361.2,633.36v2h3.9v-2h-3.9ZM361.2,633.36h-11.3v-2h11.3v2ZM361.2,610.96h-11.3v2h11.3v-2Z"/>
    <path id="path1330-17" class="st1" d="M948.5,693.26h22.5v-1.1h-22.5v1.1ZM948.5,693.26v-3.9h-2v3.9h2ZM971.1,693.26h2v-3.9h-2v3.9ZM971.1,693.26v11.3h-2v-11.3h2ZM948.5,693.26v11.3h2v-11.3h-2Z"/>
    <path id="path1330-18" class="st1" d="M1123.8,693.06h22.5v-1.1h-22.5v1.1ZM1123.8,693.06v-3.9h-2v3.9h2ZM1146.2,693.06h2v-3.9h-2v3.9ZM1146.2,693.06v11.3h-2v-11.3h2ZM1123.8,693.06v11.3h2v-11.3h-2Z"/>
    <path id="path1330-19" class="st1" d="M1205.4,693.26h22.5v-1.1h-22.5v1.1ZM1205.4,693.26v-3.9h-2v3.9h2ZM1227.9,693.26h2v-3.9h-2v3.9ZM1227.9,693.26v11.3h-2v-11.3h2ZM1205.4,693.26v11.3h2v-11.3h-2Z"/>
    <path id="path1330-2-2" class="st1" d="M741.7,627.76h-22.5v1.1h22.5v-1.1ZM741.7,627.76v3.9h2v-3.9h-2ZM719.2,627.76h-2v3.9h2v-3.9ZM719.2,627.76v-11.3h2v11.3h-2ZM741.7,627.76v-11.3h-2v11.3h2Z"/>
  </g>
  <g class="st5">
    <circle id="p-1" class="st0" cx="550.7" cy="526.76" r="6.6"/>
  </g>
  <polygon id="open-space-16" data-name="open-space-1" class="st3" points="17.38 656.77 69.62 656.77 69.62 610.48 17.38 610.48 17.38 656.77"/>
  <polygon id="open-space-17" data-name="open-space-1" class="st3" points="1391.92 576.09 1444.15 576.09 1444.15 529.8 1391.92 529.8 1391.92 576.09"/>
</svg>